<svg xmlns="http://www.w3.org/2000/svg" viewBox="0 0 512 512" xml:space="preserve">
  <path style="fill:#a25425" d="m60.235 304-1.882 32H336v-32z"/>
  <path style="fill:#12c5fd" d="M336 368h144v16H336zm0-112h144v16H336z"/>
  <path style="fill:#a25425" d="M32 272h30.117l.942-16H32z"/>
  <path style="fill:#af6328" d="M512 248c0 4.4-3.6 8-8 8H8c-4.4 0-8-3.6-8-8v-16c0-4.4 3.6-8 8-8h496c4.4 0 8 3.6 8 8z"/>
  <path style="fill:#e2e4e6" d="M136 144v24c0 8.801 7.199 16 16 16h224c8.801 0 16-7.199 16-16v-24z"/>
  <circle style="fill:#35495c" cx="264" cy="164" r="8"/>
  <path style="fill:#113247" d="M376 8c4.41 0 8 3.59 8 8v120H144V16c0-4.41 3.588-8 8-8zm0-8H152c-8.801 0-16 7.199-16 16v128h256V16c0-8.801-7.199-16-16-16"/>
  <path style="fill:#35495c" d="M384 16c0-4.41-3.59-8-8-8H152c-4.412 0-8 3.59-8 8v120h240z"/>
  <path style="fill:#3b5366" d="M376 8H266.445l39.109 128H384V16c0-4.41-3.59-8-8-8"/>
  <path style="fill:#35495c" d="M376 0H264l2.445 8H376c4.41 0 8 3.59 8 8v120h-78.446l2.446 8h84V16c0-8.801-7.199-16-16-16"/>
  <path style="fill:#c9d1d7" d="M296 216h-64l8-32h48z"/>
  <path style="fill:#f6b74e" d="M376 280h64v16h-64z"/>
  <path style="fill:#12c5fd" d="M376 296h64v8h-64z"/>
  <path style="fill:#f6b74e" d="M376 408h64v16h-64z"/>
  <path style="fill:#12c5fd" d="M376 424h64v8h-64z"/>
  <path style="fill:#af6328" d="M32 272v232c0 4.4 3.6 8 8 8s8.211-3.594 8.469-7.986L62.118 272z"/>
  <path style="fill:#12c5fd" d="M336 384v120c0 4.4 3.6 8 8 8h128c4.4 0 8-3.6 8-8V384zm104 48h-64v-24h64zM336 272v96h144v-96zm104 32h-64v-24h64z"/>
  <path style="fill:#e2e4e6" d="M216 216h96v8h-96z"/>
</svg>